<svg width="40" height="40" viewBox="0 0 40 40" fill="none" xmlns="http://www.w3.org/2000/svg">
    <g clip-path="url(#clip0_1455_7918)">
        <path fill-rule="evenodd" clip-rule="evenodd" d="M0 20C0 36.1303 3.86965 40 20 40C36.1303 40 40 36.1303 40 20C40 3.86965 36.1303 0 20 0C3.86965 0 0 3.86965 0 20ZM8.06517 24.1548L14.3381 9.89816C15.3972 7.4949 17.4338 6.19144 20 6.19144C22.5662 6.19144 24.6028 7.4949 25.6619 9.89816L31.9348 24.1548C32.22 24.8472 32.4644 25.7434 32.4644 26.5173C32.4644 30.061 29.9796 32.5458 26.4359 32.5458C25.2288 32.5458 24.2701 32.2377 23.2997 31.926C22.3054 31.6065 21.2987 31.2831 20 31.2831C18.7162 31.2831 17.6851 31.6094 16.6711 31.9303C15.6903 32.2405 14.7257 32.5458 13.5641 32.5458C10.0204 32.5458 7.53564 30.061 7.53564 26.5173C7.53564 25.7434 7.78004 24.8472 8.06517 24.1548ZM20 12.3828L13.8085 26.3951C15.6415 25.5397 17.7596 25.1324 20 25.1324C22.1588 25.1324 24.3584 25.5397 26.1099 26.3951L20 12.3828Z" fill="#5943FF"></path>
    </g>
    <defs>
        <clipPath id="clip0_1455_7918">
            <rect width="40" height="40" fill="white"></rect>
        </clipPath>
    </defs>
</svg>